<svg xmlns="http://www.w3.org/2000/svg" viewBox="0 0 1490.87 290.47"><defs><style>.cls-1{fill:#753d2b;}.cls-1,.cls-10,.cls-11,.cls-12,.cls-2,.cls-3,.cls-4,.cls-5,.cls-6,.cls-7,.cls-8,.cls-9{fill-rule:evenodd;}.cls-2{fill:#61331f;}.cls-3{fill:#ffe4b7;}.cls-4{fill:#fed9a6;}.cls-5{fill:#d6a200;}.cls-6{fill:#c89305;}.cls-7{fill:#a0a2a4;}.cls-8{fill:#e09868;}.cls-9{fill:#fff;}.cls-10{fill:#92bc0f;}.cls-11{fill:#b3101a;}.cls-12{fill:#008bd0;}</style></defs><title>CodigoKidBranco</title><g id="Camada_2" data-name="Camada 2"><g id="Camada_1-2" data-name="Camada 1"><path class="cls-1" d="M16.32,179.83S0,113.29,0,90.38C0,41.31,40.62,41.66,40.62,41.66v-.12C64.57.93,178.91.93,178.91.93L162.59,17.24C207.38,3,292.67.93,292.67.93l-8.1,32.52c24.42,40.73-8.1,146.39-8.1,146.39Z"/><path class="cls-2" d="M178.91.93S64.57.93,40.62,41.54v.12S0,41.31,0,90.38c0,22.91,16.32,89.45,16.32,89.45S185.27,104.27,292.67.93c0,0-85.29,2.08-130.07,16.32Z"/><path class="cls-3" d="M257.37,159.81V143.5a40.6,40.6,0,0,0-40.62-40.62H70.36A40.6,40.6,0,0,0,29.74,143.5v16.32a24.42,24.42,0,1,0,0,48.84v8.1a48.82,48.82,0,0,0,30,45l52.54,21.87a81.53,81.53,0,0,0,62.61,0l52.54-21.87a48.82,48.82,0,0,0,30-45v-8.1a24.42,24.42,0,1,0,0-48.84Z"/><path class="cls-2" d="M89.45,194.76a7.89,7.89,0,0,1-8.1-7.64v-7.75a8.11,8.11,0,0,1,16.2,0v7.75a8,8,0,0,1-8.1,7.64Z"/><path class="cls-2" d="M203.21,194.76a8,8,0,0,1-8.1-7.64v-7.75a8,8,0,0,1,8.1-7.64c4.51,0,8.22,3.47,8.22,7.64v7.75c0,4.17-3.7,7.64-8.22,7.64Z"/><path class="cls-4" d="M72.33,244.87a38,38,0,0,1-10.18-26V126.72c25.92-2,107.51-9,154.49-23.84H70.24a37.79,37.79,0,0,0-8.1.93v-.12A40.8,40.8,0,0,0,29.63,143.5v16.32a24.42,24.42,0,1,0,0,48.84v8.1a48.75,48.75,0,0,0,30.09,45l52.42,21.87c2.66,1,5.21,2,7.87,2.78-23.14-17-38.65-31.82-47.68-41.54Z"/><path class="cls-5" d="M144.08,97.67c-17.82,9.26-53.23,28.12-66.08,38.54C128.8,126.37,203.33,123,282.94,157l6-28.82S229.71,97.9,144.08,97.67Z"/><path class="cls-6" d="M4.51,125.68l6.36,30.9S36.57,144.19,78,136.21c12.85-10.41,48.26-29.28,66.08-38.54a354.39,354.39,0,0,0-139.56,28Z"/><path class="cls-7" d="M19.33,161.43c-.12,4.4,1.5,6,2.78,7.41a8.83,8.83,0,0,1,.93,1.27,9.93,9.93,0,0,1,1.27,3.7c5.21,31.48,6.36,35.76,19.56,42.7,6.36,3.36,19.33,5.55,32.29,5.55,10.18,0,24.88-1.27,37-7.64,17.71-9.26,24.3-41.31,24.65-42.82,0-.23.58-4.05,8.68-4.05H147c7.75,0,8.33,3.82,8.33,4.28.23,1.27,6.83,33.33,24.65,42.59,12.15,6.36,26.85,7.64,36.92,7.64,13.08,0,26-2.2,32.4-5.55,13.19-6.94,14.35-11.23,19.56-42.7a10,10,0,0,1,1.16-3.7c.35-.46.69-.81,1-1.27a8.76,8.76,0,0,0,2.55-4.51V150.21c-1.27-5-6-7.06-8.56-7.41a14.87,14.87,0,0,0-2.2-.46h-84a44.89,44.89,0,0,0-8.91,3c-2.08.93-4.28,2.08-6.25,3a51.92,51.92,0,0,1-11.23,4.4,29.57,29.57,0,0,1-3.12.58,14.34,14.34,0,0,1-5.44,0c-1-.12-2.08-.35-3.24-.58a53.6,53.6,0,0,1-11.11-4.4c-2-.93-4.17-2.08-6.25-3a44.89,44.89,0,0,0-8.91-3H30.44a12.28,12.28,0,0,0-2.2.46c-3,.46-8.56,3-9,9.37V154c0,1.27,0,2.66.12,4.05v3.36Zm249.27-7.75h0v4.63l-5.9-2.31Zm-101.84,6.71h0c.81-2.2,6.48-9.49,41.2-11.57,6-.35,11.23-.58,15.74-.58,20.48,0,27,3.7,30.9,9.72,2.31,3.47,3.82,11,3.82,15.62.12,10.3-2,28.58-16.2,35.53-6.6,3.12-16.32,5-26.27,5-18.86,0-34-6.36-40.5-17.13-13.42-22.68-8.91-36.22-8.68-36.57ZM38.54,158h0c3.93-6,10.42-9.72,30.9-9.72,4.51,0,9.72.23,15.74.58,34.72,2.08,40.39,9.37,41.31,11.8.12.12,4.63,13.66-8.8,36.34-6.48,10.76-21.64,17.13-40.62,17.13-9.84,0-19.67-1.85-26.15-5-14.23-6.94-16.32-25.23-16.32-35.53.12-4.74,1.62-12.15,3.93-15.62Zm-14-4.28h0l5.9,2.31-5.9,2.31Z"/><path class="cls-8" d="M146.39,254.13c-15.16,0-28.58-6.48-32.75-15.74-.58-1.16.46-2.43,2.2-2.78s3.47.35,4.05,1.5c3.24,7.41,14.23,12.61,26.5,12.61s23.14-5.21,26.5-12.61c.46-1.16,2.31-1.85,4.05-1.5s2.66,1.62,2.08,2.78c-4.17,9.26-17.59,15.74-32.63,15.74Z"/><path class="cls-9" d="M972.77,261.19H956.11v15.39h19.21v2.55H953V242h22.22v2.66H956.11v13.89h16.66Zm24.88,10.88a4.45,4.45,0,0,0-1.62-3.36c-1-.93-3-1.74-5.79-2.31A18,18,0,0,1,983,263.5a5.83,5.83,0,0,1-2.31-4.86,6.58,6.58,0,0,1,2.66-5.44,11.17,11.17,0,0,1,7.06-2.2,11.56,11.56,0,0,1,7.41,2.31,7.12,7.12,0,0,1,2.55,5.79v.12h-2.89a5.09,5.09,0,0,0-1.85-3.93,8.46,8.46,0,0,0-5.21-1.62,7.51,7.51,0,0,0-5,1.39,4.44,4.44,0,0,0-1.74,3.47,4.32,4.32,0,0,0,1.39,3.12c1,.81,2.89,1.5,5.79,2.08a21.31,21.31,0,0,1,7.41,3,6.27,6.27,0,0,1,2.43,5.21,6.6,6.6,0,0,1-2.78,5.55,11.3,11.3,0,0,1-7.41,2.2c-3.36,0-6-.81-7.87-2.43a6.94,6.94,0,0,1-2.78-5.67l.12-.23h2.78a5.06,5.06,0,0,0,2.43,4.4,10.14,10.14,0,0,0,5.32,1.39,8.7,8.7,0,0,0,5.21-1.5,4.58,4.58,0,0,0,2-3.59Zm20.14,5.09a8.31,8.31,0,0,0,5.21-1.74,5.83,5.83,0,0,0,2.31-4.86H1028l.12.12a8,8,0,0,1-3,6.48,11.63,11.63,0,0,1-7.29,2.55,10.28,10.28,0,0,1-8.56-3.93c-2.08-2.55-3-5.9-3-9.84v-1.16c0-3.93.93-7.29,3-9.84a10.14,10.14,0,0,1,8.56-3.93,10.75,10.75,0,0,1,7.41,2.66,9.17,9.17,0,0,1,2.89,7.06l-.12.23h-2.66a6.5,6.5,0,0,0-2.2-5.32,8.24,8.24,0,0,0-11.8,1.16,14.65,14.65,0,0,0-2.08,8v1.16a14.12,14.12,0,0,0,2.08,8,7.5,7.5,0,0,0,6.48,3.24ZM1033,264.89c0-4.05,1-7.41,3.36-10a10.73,10.73,0,0,1,8.8-3.93,11,11,0,0,1,8.91,3.93,14.79,14.79,0,0,1,3.36,10v.93a14.79,14.79,0,0,1-3.36,10,11.93,11.93,0,0,1-17.71,0c-2.31-2.55-3.36-5.9-3.36-10Zm3,.93a12.85,12.85,0,0,0,2.43,8,8.08,8.08,0,0,0,6.83,3.36,7.81,7.81,0,0,0,6.6-3.36,12.85,12.85,0,0,0,2.43-8v-.93a13.09,13.09,0,0,0-2.43-8,8.57,8.57,0,0,0-13.42,0,13.09,13.09,0,0,0-2.43,8Zm31.13,13.31h-3V239.32h3Zm25.92,0q-.17-1.39-.35-2.43a14,14,0,0,1-.12-2.2,11.37,11.37,0,0,1-4.05,3.7,11.21,11.21,0,0,1-5.9,1.5c-2.78,0-4.86-.69-6.36-2.2a7.94,7.94,0,0,1-2.2-5.79,6.86,6.86,0,0,1,3.24-6,14.57,14.57,0,0,1,8.45-2.31h6.83v-3.47a5.94,5.94,0,0,0-2-4.63,8,8,0,0,0-5.21-1.62,7.64,7.64,0,0,0-5.09,1.5,4.83,4.83,0,0,0-2,3.82h-2.78l-.12-.12a6.42,6.42,0,0,1,2.66-5.44,11,11,0,0,1,7.41-2.43,11.23,11.23,0,0,1,7.29,2.31,8.4,8.4,0,0,1,2.78,6.71v13.54a23.22,23.22,0,0,0,.12,2.89,21.89,21.89,0,0,0,.58,2.66Zm-10.07-2.2a10.44,10.44,0,0,0,6-1.62,9.1,9.1,0,0,0,3.59-4.28V265.7h-6.83a9.24,9.24,0,0,0-6.13,1.85,5,5,0,0,0-2.43,4.17,4.81,4.81,0,0,0,1.5,3.82,6.15,6.15,0,0,0,4.28,1.39Zm32.29-11.34c0-4.4.93-8,2.78-10.65a9.09,9.09,0,0,1,7.75-3.93,10.12,10.12,0,0,1,8.56,4.63V239.32h3v39.81h-2.55l-.35-3.93a11,11,0,0,1-3.59,3.36,11.78,11.78,0,0,1-5.09,1.16A9.19,9.19,0,0,1,1118,276c-1.85-2.43-2.78-5.79-2.78-9.84Zm3,.58a14.4,14.4,0,0,0,2,7.87,7,7,0,0,0,6.13,3,8.91,8.91,0,0,0,4.86-1.27,10.89,10.89,0,0,0,3.12-3.7V259a9.85,9.85,0,0,0-3-3.82,7.51,7.51,0,0,0-5-1.5,6.58,6.58,0,0,0-6,3.36,15.64,15.64,0,0,0-2.08,8.56ZM1156,279.7a10.91,10.91,0,0,1-8.68-3.82,13.82,13.82,0,0,1-3.36-9.72v-1.39a14.48,14.48,0,0,1,3.36-9.84,10.68,10.68,0,0,1,8.45-3.93,9.85,9.85,0,0,1,7.75,3.24,13.62,13.62,0,0,1,2.66,8.68v2.43h-19.21v.81a12.51,12.51,0,0,0,2.43,7.87,7.91,7.91,0,0,0,6.6,3.12,12.23,12.23,0,0,0,4.63-.93,8.93,8.93,0,0,0,3.47-2.2l1.39,2.08a13,13,0,0,1-3.82,2.55,14.17,14.17,0,0,1-5.67,1Zm-.23-26a7.55,7.55,0,0,0-5.9,2.55,10.53,10.53,0,0,0-2.55,6.36v.12h15.85v-.58a9.73,9.73,0,0,0-2-6.13,6.82,6.82,0,0,0-5.44-2.31Zm33.1,10.07v15.39h-3V242h12.73c3.93,0,6.94,1,9.14,3a11.47,11.47,0,0,1,0,15.74c-2.2,2-5.21,3-9.14,3Zm0-2.66h9.72c3.12,0,5.44-.69,6.94-2.31a8,8,0,0,0,2.31-5.9,8.41,8.41,0,0,0-2.31-5.9c-1.5-1.62-3.82-2.31-6.94-2.31h-9.72Zm41.08-6.94-2.2-.12a7.36,7.36,0,0,0-4.74,1.62,8.72,8.72,0,0,0-2.55,4.4v19.09h-3.12V251.58H1220l.46,4.51v.35a9,9,0,0,1,3.12-3.93,7.83,7.83,0,0,1,4.86-1.5,3.2,3.2,0,0,1,1,.12,7.37,7.37,0,0,1,.81.23Zm3,10.76a14.79,14.79,0,0,1,3.36-10,11.93,11.93,0,0,1,17.71,0,14.79,14.79,0,0,1,3.36,10v.93a14.79,14.79,0,0,1-3.36,10,10.73,10.73,0,0,1-8.8,3.93,11,11,0,0,1-8.91-3.93,14.79,14.79,0,0,1-3.36-10Zm3,.93a12.85,12.85,0,0,0,2.43,8,8.51,8.51,0,0,0,13.54,0,12.85,12.85,0,0,0,2.43-8v-.93a13.09,13.09,0,0,0-2.43-8,8.13,8.13,0,0,0-6.83-3.24,7.92,7.92,0,0,0-6.71,3.24,13.09,13.09,0,0,0-2.43,8Zm26.73-.23c0-4.4.93-8,2.78-10.65a9.09,9.09,0,0,1,7.75-3.93,10.06,10.06,0,0,1,5.09,1.27,9.7,9.7,0,0,1,3.59,3.59l.46-4.28h2.43v27.77c0,3.47-.93,6.13-2.89,8.1a11.44,11.44,0,0,1-8.22,2.89,19,19,0,0,1-4.28-.58,13.12,13.12,0,0,1-3.93-1.27L1266,286a18.58,18.58,0,0,0,3.59,1.16,14.67,14.67,0,0,0,3.93.46c2.78,0,4.86-.69,6.13-2.08a8.38,8.38,0,0,0,2.08-6.13v-3.93a9.27,9.27,0,0,1-3.59,3.12,10.18,10.18,0,0,1-5,1.16,9.19,9.19,0,0,1-7.75-3.7c-1.85-2.43-2.78-5.79-2.78-9.84Zm3,.58a13.47,13.47,0,0,0,2.08,7.87,6.77,6.77,0,0,0,6,3,8.91,8.91,0,0,0,4.86-1.27,9.9,9.9,0,0,0,3.12-3.7V259a9.07,9.07,0,0,0-3-3.82,7.51,7.51,0,0,0-5-1.5,6.58,6.58,0,0,0-6,3.36,15.91,15.91,0,0,0-2.08,8.56Zm39.69-12-2.08-.12a6.92,6.92,0,0,0-4.74,1.62,8.86,8.86,0,0,0-2.66,4.4v19.09h-3V251.58h2.66l.35,4.51v.35a9.17,9.17,0,0,1,3.24-3.93,7.28,7.28,0,0,1,4.74-1.5,2.87,2.87,0,0,1,1,.12c.35.12.69.12.93.23Zm22.8,25c-.23-.93-.35-1.74-.46-2.43a14,14,0,0,1-.12-2.2,10.49,10.49,0,0,1-4.05,3.7,11.21,11.21,0,0,1-5.9,1.5,8.42,8.42,0,0,1-6.25-2.2,7.58,7.58,0,0,1-2.31-5.79,7.13,7.13,0,0,1,3.24-6,14.57,14.57,0,0,1,8.45-2.31h6.83v-3.47a6.27,6.27,0,0,0-1.85-4.63,8.12,8.12,0,0,0-5.32-1.62,7.85,7.85,0,0,0-5.09,1.5,4.83,4.83,0,0,0-2,3.82h-2.78v-.12a6.14,6.14,0,0,1,2.66-5.44,10.67,10.67,0,0,1,7.29-2.43,11.23,11.23,0,0,1,7.29,2.31,8.4,8.4,0,0,1,2.78,6.71v13.54a22.55,22.55,0,0,0,.23,2.89,10.71,10.71,0,0,0,.46,2.66Zm-10.18-2.2a10.82,10.82,0,0,0,6.13-1.62,8.85,8.85,0,0,0,3.47-4.28V265.7h-6.83a9.67,9.67,0,0,0-6.13,1.85,5,5,0,0,0-2.43,4.17,4.81,4.81,0,0,0,1.5,3.82,6.15,6.15,0,0,0,4.28,1.39Zm23.38-25.34.23,4.51a9.22,9.22,0,0,1,3.59-3.7,9.73,9.73,0,0,1,5.21-1.39,9.62,9.62,0,0,1,5.32,1.5,8.36,8.36,0,0,1,3,4.63,11.54,11.54,0,0,1,3.59-4.51,9.55,9.55,0,0,1,5.55-1.62,8.29,8.29,0,0,1,6.83,3c1.62,1.85,2.43,5,2.43,9v16.09H1374V263q0-5.21-1.74-7.29a6.38,6.38,0,0,0-5-2.08,6.59,6.59,0,0,0-5.44,2.2,10.26,10.26,0,0,0-2.43,5.44v17.82h-3.12V263c0-3.36-.58-5.79-1.74-7.17a6.19,6.19,0,0,0-5.09-2.2,7.89,7.89,0,0,0-5.09,1.62,8.11,8.11,0,0,0-2.66,4.4v19.44h-3V251.58Zm61.22,27.54c-.23-.93-.35-1.74-.46-2.43a14,14,0,0,1-.12-2.2,10.48,10.48,0,0,1-4.05,3.7,11.21,11.21,0,0,1-5.9,1.5,8.42,8.42,0,0,1-6.25-2.2,7.58,7.58,0,0,1-2.31-5.79,7.12,7.12,0,0,1,3.24-6,14.57,14.57,0,0,1,8.45-2.31H1402v-3.47a6.27,6.27,0,0,0-1.85-4.63,8.12,8.12,0,0,0-5.32-1.62,7.85,7.85,0,0,0-5.09,1.5,4.83,4.83,0,0,0-2,3.82H1385v-.12a6.14,6.14,0,0,1,2.66-5.44,10.67,10.67,0,0,1,7.29-2.43,11.22,11.22,0,0,1,7.29,2.31A8.4,8.4,0,0,1,1405,260v13.54a22.55,22.55,0,0,0,.23,2.89,10.71,10.71,0,0,0,.46,2.66Zm-10.18-2.2a10.82,10.82,0,0,0,6.13-1.62A8.85,8.85,0,0,0,1402,271V265.7h-6.83a9.45,9.45,0,0,0-6.13,1.85,5,5,0,0,0-2.43,4.17,4.81,4.81,0,0,0,1.5,3.82,6.15,6.15,0,0,0,4.28,1.39Zm30.9.23a8.31,8.31,0,0,0,5.21-1.74,5.74,5.74,0,0,0,2.2-4.86h2.78v.12a7.72,7.72,0,0,1-3,6.48,11.55,11.55,0,0,1-7.17,2.55c-3.7,0-6.6-1.27-8.56-3.93a15.18,15.18,0,0,1-3.12-9.84v-1.16a15.8,15.8,0,0,1,3-9.84,10.36,10.36,0,0,1,8.68-3.93,10.66,10.66,0,0,1,7.29,2.66,8.44,8.44,0,0,1,2.89,7.06V261h-2.78a6.5,6.5,0,0,0-2.2-5.32,7,7,0,0,0-5.21-2,7.28,7.28,0,0,0-6.48,3.12,14.7,14.7,0,0,0-2.2,8v1.16a14.14,14.14,0,0,0,2.2,8,7.36,7.36,0,0,0,6.48,3.24Zm.69,2.2-.23,1.62a5.83,5.83,0,0,1,3.24,1.27,3.92,3.92,0,0,1,1.27,3.12,4.3,4.3,0,0,1-2.08,3.7,10.17,10.17,0,0,1-5.79,1.39l-.12-2a9.32,9.32,0,0,0,3.82-.81,2.47,2.47,0,0,0,1.62-2.31,2,2,0,0,0-1-2,9,9,0,0,0-3.82-.81l.81-3.24Zm33.56-.23c-.23-.93-.35-1.74-.46-2.43a14,14,0,0,1-.12-2.2,10.48,10.48,0,0,1-4.05,3.7,10.67,10.67,0,0,1-5.9,1.5,8.42,8.42,0,0,1-6.25-2.2,7.5,7.5,0,0,1-2.2-5.79,6.86,6.86,0,0,1,3.24-6,14.19,14.19,0,0,1,8.33-2.31H1457v-3.47a5.86,5.86,0,0,0-1.85-4.63,8.12,8.12,0,0,0-5.32-1.62,7.85,7.85,0,0,0-5.09,1.5,4.71,4.71,0,0,0-1.85,3.82H1440v-.12a6.42,6.42,0,0,1,2.66-5.44,10.67,10.67,0,0,1,7.29-2.43,11.34,11.34,0,0,1,7.41,2.31A8.71,8.71,0,0,1,1460,260v13.54a22.55,22.55,0,0,0,.23,2.89,21.36,21.36,0,0,0,.46,2.66Zm-10.18-2.2a10.82,10.82,0,0,0,6.13-1.62A8.24,8.24,0,0,0,1457,271V265.7h-6.83a9.67,9.67,0,0,0-6.13,1.85,5,5,0,0,0-2.43,4.17,5.23,5.23,0,0,0,1.5,3.82,6.35,6.35,0,0,0,4.28,1.39ZM1458,240.82a5.07,5.07,0,0,1-1.39,3.7,4.4,4.4,0,0,1-3.47,1.5,6.47,6.47,0,0,1-3.82-1.39,6.45,6.45,0,0,0-3.36-1.39,2.51,2.51,0,0,0-2.08.93,3.4,3.4,0,0,0-.81,2.2l-2-.46a5.46,5.46,0,0,1,1.39-3.7,4.81,4.81,0,0,1,3.47-1.5,7.35,7.35,0,0,1,3.7,1.5,6.75,6.75,0,0,0,3.47,1.39,2.47,2.47,0,0,0,2-.93,3.23,3.23,0,0,0,.93-2.31Zm8.45,24.07a14.79,14.79,0,0,1,3.36-10,11.93,11.93,0,0,1,17.71,0,14.79,14.79,0,0,1,3.36,10v.93a14.79,14.79,0,0,1-3.36,10,11.93,11.93,0,0,1-17.71,0,14.79,14.79,0,0,1-3.36-10Zm3,.93a12.85,12.85,0,0,0,2.43,8,8.51,8.51,0,0,0,13.54,0,12.85,12.85,0,0,0,2.43-8v-.93a12.45,12.45,0,0,0-2.55-8,7.78,7.78,0,0,0-6.71-3.24,7.92,7.92,0,0,0-6.71,3.24,13.09,13.09,0,0,0-2.43,8Z"/><path class="cls-10" d="M955,176.83A9,9,0,0,1,972.54,175c4.17,14.23,13.19,21.87,26.27,27.54a8.73,8.73,0,0,1,5.44,8.56,8.9,8.9,0,0,1-9.26,8.45c-15-.58-40.62-28.35-40-42.7Zm-437.55,0A9,9,0,0,1,535,175c4.17,14.23,13.19,21.87,26.27,27.54a8.73,8.73,0,0,1,5.44,8.56,8.9,8.9,0,0,1-9.26,8.45c-15-.58-40.62-28.35-40-42.7Z"/><path class="cls-11" d="M445,207.15h0a12.6,12.6,0,0,0,12.5,12.5H484a12.5,12.5,0,0,0,12.38-12.5h0A12.4,12.4,0,0,0,484,194.76h-26.5A12.5,12.5,0,0,0,445,207.15Z"/><path class="cls-11" d="M1145.78,219.53h0a12.5,12.5,0,0,0,12.5-12.38v-26.5a12.5,12.5,0,0,0-12.5-12.38h0a12.4,12.4,0,0,0-12.38,12.38v26.5a12.4,12.4,0,0,0,12.38,12.38Z"/><path class="cls-12" d="M1295.64,92.58h14.23a14.32,14.32,0,0,0,14.23-14.35h0A14.3,14.3,0,0,0,1309.88,64h0a14.3,14.3,0,0,0-14.23,14.23Z"/><path class="cls-12" d="M782.29,92.58h14.23a14.32,14.32,0,0,0,14.23-14.35h0A14.3,14.3,0,0,0,796.53,64h0a14.37,14.37,0,0,0-14.23,14.23Z"/><path class="cls-9" d="M1438.22,120.93h-40.5a40.56,40.56,0,1,0,40.5,40.5Zm0-17.71V38.54h17.71v122.9a58.21,58.21,0,1,1-58.21-58.21ZM1295.64,219.41V103.23h17.82V219.41Zm-134.12-91.07,109.71,67.47-14.12,23.61-125.1-77V0h27.08V98l.23-.23L1260.7,38.54l13.66,24ZM435.7,37.84a91.18,91.18,0,0,1,67.35,29.51l-20.14,18.4A64,64,0,0,0,435.7,65c-35.3,0-64,28.58-64,63.65a63.83,63.83,0,0,0,64,63.65h.69v27.31h-.69c-50.46,0-91.42-40.73-91.42-91s41-90.84,91.42-90.84Zm138.52,63.76a59,59,0,0,1,0,117.92h-.58V201.71h.58A41.14,41.14,0,1,0,533,159.58H515.2a59.06,59.06,0,0,1,59-58Zm171.16,19.33H704.76a40.56,40.56,0,1,0,40.62,40.5Zm0-17.71V38.54H763v122.9a58.21,58.21,0,1,1-58.21-58.21Zm36.92,116.19V103.23h17.82V219.41Zm136.79-17.94V160.74a41,41,0,1,0-41,40.73Zm0,17.94h-41c-32.52,0-59-26.38-59-58.67s26.5-58.67,59-58.67S937,128.45,937,160.74v70.71c0,62.49-96.17,72.33-117.92,17.71h23.14c21.06,32.63,76.84,15,76.84-17.71Zm92.69-117.81a59,59,0,0,1,0,117.92h-.58V201.71h.58a41.14,41.14,0,1,0-41.2-42.12H952.75a59.06,59.06,0,0,1,59-58Zm-443.45-9h14.23a14.32,14.32,0,0,0,14.23-14.35h0A14.3,14.3,0,0,0,582.55,64h0a14.3,14.3,0,0,0-14.23,14.23Z"/><path class="cls-9" d="M1458.35,16.66A16.33,16.33,0,0,1,1463,4.86,15,15,0,0,1,1474.21,0a14.81,14.81,0,0,1,11.23,4.86,16.33,16.33,0,0,1,4.63,11.8,16.23,16.23,0,0,1-4.63,11.92,15.39,15.39,0,0,1-22.45,0,16.23,16.23,0,0,1-4.63-11.92Zm2.66,0a13.6,13.6,0,0,0,3.93,10.07,12.74,12.74,0,0,0,18.63,0,14.18,14.18,0,0,0,3.82-10.07,14.09,14.09,0,0,0-3.82-10,13,13,0,0,0-18.63,0,13.7,13.7,0,0,0-3.93,10Zm10,1.74v7.52h-3.36v-19H1474a8.32,8.32,0,0,1,5.32,1.5,4.86,4.86,0,0,1,1.85,4.28,4.28,4.28,0,0,1-.69,2.43,4.91,4.91,0,0,1-2.2,1.74,3.75,3.75,0,0,1,2.2,1.74,5.64,5.64,0,0,1,.69,2.89v2.89c.12.46.23.81.35,1.16v.35H1478a3.32,3.32,0,0,1-.23-1.39v-3a2.83,2.83,0,0,0-.81-2.31,2.94,2.94,0,0,0-2.43-.81Zm0-2.89h3.47a4.28,4.28,0,0,0,2.43-.69,2.42,2.42,0,0,0,1-2,2.72,2.72,0,0,0-.93-2.31,5,5,0,0,0-3-.69h-3Z"/></g></g></svg>